<?xml version="1.0" standalone="no"?>
<!DOCTYPE svg PUBLIC "-//W3C//DTD SVG 20010904//EN"
 "http://www.w3.org/TR/2001/REC-SVG-20010904/DTD/svg10.dtd">
<svg version="1.0" xmlns="http://www.w3.org/2000/svg"
 width="300.000000pt" height="275.000000pt" viewBox="0 0 300.000000 275.000000"
 preserveAspectRatio="xMidYMid meet">
<metadata>
Created by potrace 1.10, written by Peter Selinger 2001-2011
</metadata>
<g transform="translate(0.000000,275.000000) scale(0.100000,-0.100000)"
fill="#000000" stroke="none">
<path d="M1491 2599 c-13 -5 -32 -7 -42 -4 -22 7 -55 -9 -68 -33 -11 -22 16
-111 44 -142 19 -21 19 -23 2 -52 -20 -35 -21 -79 -5 -198 10 -75 9 -100 -6
-175 -18 -91 -13 -126 20 -139 20 -8 102 36 112 59 5 11 7 61 4 110 -3 68 1
116 17 195 12 57 20 114 17 126 -4 13 -20 32 -36 44 -17 12 -30 27 -30 33 0 7
16 25 36 41 34 27 36 31 30 70 -11 67 -40 87 -95 65z m51 -48 c-10 -6 -10 -10
3 -21 24 -20 19 -28 -45 -60 -68 -35 -70 -35 -70 -15 0 8 21 24 48 36 40 19
44 23 24 27 -13 2 -34 -4 -47 -12 -30 -20 -35 -20 -35 -1 0 8 6 15 13 16 6 0
2 4 -11 10 -35 13 -16 31 27 25 22 -4 45 0 61 8 27 16 57 3 32 -13z m-38 -238
l-3 -88 16 65 c17 73 20 77 32 64 6 -5 -1 -53 -16 -119 -21 -94 -24 -126 -19
-217 6 -110 -3 -136 -26 -80 l-11 27 -7 -38 c-8 -42 -14 -52 -28 -43 -6 3 -2
42 11 98 20 95 19 145 -10 321 -4 30 -2 37 10 37 11 0 17 -12 20 -42 2 -29 4
-18 5 30 2 52 6 72 15 72 10 0 13 -20 11 -87z"/>
<path d="M862 2284 c-20 -14 -22 -24 -22 -102 0 -48 5 -145 10 -215 6 -81 6
-137 0 -153 -12 -30 7 -72 45 -102 32 -25 32 -62 1 -99 -23 -27 -25 -27 -43
-10 -26 23 -49 22 -66 -4 -16 -22 -15 -28 53 -268 35 -124 36 -176 9 -361 -11
-73 -11 -76 15 -114 14 -21 26 -43 26 -47 0 -5 9 -13 20 -19 18 -9 25 -6 49
19 16 17 36 31 44 31 8 0 20 7 28 16 7 8 25 22 39 29 15 8 32 27 38 42 6 15
16 119 21 230 6 110 15 222 22 247 8 33 8 54 0 77 -6 18 -11 58 -11 89 0 67
-23 100 -58 81 -16 -8 -26 -2 -65 37 -26 26 -47 53 -47 59 0 6 37 25 83 42
146 55 184 82 161 118 -24 38 -39 39 -143 3 -55 -19 -102 -32 -106 -29 -3 3
-10 84 -16 180 -6 96 -14 184 -19 196 -14 34 -43 45 -68 27z m41 -96 c4 -46
10 -147 13 -225 4 -79 9 -143 12 -143 2 0 61 20 129 45 114 42 143 47 143 26
0 -4 -24 -15 -52 -26 -228 -80 -218 -75 -218 -106 0 -19 -5 -29 -15 -29 -9 0
-15 10 -15 26 0 14 -4 23 -9 20 -15 -9 -19 18 -5 29 10 8 10 49 -1 215 -18
256 -18 250 -1 250 9 0 15 -23 19 -82z m81 -519 c3 -17 7 -52 7 -78 l2 -46 10
48 c6 26 13 47 17 47 13 0 25 -134 24 -265 l-1 -130 18 60 c13 40 19 91 19
155 0 109 8 170 22 170 6 0 9 -34 7 -84 -2 -46 -1 -82 3 -80 15 10 17 -16 4
-54 -10 -26 -19 -123 -25 -268 -6 -125 -13 -229 -15 -232 -13 -12 -25 15 -32
70 l-8 63 -7 -40 c-4 -22 -8 -61 -8 -87 -1 -34 -5 -48 -15 -48 -11 0 -13 10
-9 39 3 21 1 47 -5 56 -8 15 -12 9 -26 -38 -9 -31 -19 -70 -22 -87 -4 -16 -13
-30 -20 -30 -18 0 -17 6 2 62 8 25 14 66 12 90 l-4 43 -8 -42 c-5 -24 -12 -43
-17 -43 -5 0 -9 -6 -9 -14 0 -16 -18 -31 -26 -23 -3 2 0 26 7 53 6 27 17 101
23 164 11 104 11 120 -6 170 -45 138 -94 321 -87 325 12 8 17 -4 64 -167 l45
-153 -5 75 c-3 41 -7 112 -8 157 -3 81 -3 82 19 77 21 -5 23 -2 30 55 7 67 18
78 28 30z"/>
<path d="M929 1488 c4 -62 6 -67 10 -33 7 45 2 105 -8 105 -3 0 -4 -33 -2 -72z"/>
<path d="M1003 1385 c0 -44 2 -61 4 -37 2 23 2 59 0 80 -2 20 -4 1 -4 -43z"/>
<path d="M953 1365 c0 -44 2 -61 4 -37 2 23 2 59 0 80 -2 20 -4 1 -4 -43z"/>
<path d="M1058 1244 c-14 -34 -17 -190 -3 -219 7 -14 11 17 15 110 3 72 4 132
3 134 -1 2 -8 -9 -15 -25z"/>
<path d="M984 1174 c-4 -14 -2 -40 4 -57 9 -30 10 -28 11 26 1 61 -5 73 -15
31z"/>
<path d="M2110 2174 c-86 -24 -139 -33 -169 -30 -74 7 -104 -51 -63 -119 10
-16 40 -79 67 -139 54 -120 79 -144 115 -111 28 25 26 43 -21 152 -22 52 -37
99 -32 104 4 4 62 22 128 39 153 41 197 78 147 123 -24 22 -25 22 -172 -19z
m165 -22 c-6 -5 -66 -23 -135 -41 -69 -17 -141 -36 -162 -41 l-36 -10 54 -126
c58 -134 61 -144 42 -144 -7 0 -38 59 -68 130 -30 72 -60 130 -66 130 -15 0
-16 58 -2 66 5 3 15 -2 22 -11 12 -17 23 -15 177 27 95 27 168 42 174 37 6 -6
6 -12 0 -17z"/>
<path d="M267 2013 c-8 -10 -23 -37 -32 -60 -16 -41 -16 -42 9 -85 16 -29 31
-79 42 -142 l17 -97 -32 -33 c-17 -17 -31 -39 -31 -47 0 -22 32 -49 58 -49 16
0 23 -8 27 -27 17 -82 27 -104 52 -116 22 -10 28 -8 45 13 17 21 19 33 12 80
-13 96 -12 102 23 122 l32 19 60 -60 c33 -34 66 -61 74 -61 19 0 47 33 47 56
0 11 -18 41 -41 69 -31 38 -39 54 -34 73 8 31 -19 62 -54 62 -19 0 -41 15 -77
53 -81 84 -102 114 -109 159 -14 79 -52 110 -88 71z m48 -60 c10 -74 20 -92
110 -188 77 -82 86 -89 104 -77 12 6 25 12 31 12 11 0 14 -30 3 -30 -5 0 -14
-4 -22 -9 -11 -7 -1 -24 48 -77 44 -49 58 -70 51 -78 -8 -8 -17 -4 -32 14 -11
14 -40 46 -64 72 l-45 48 -59 -30 c-33 -17 -60 -37 -60 -44 0 -8 7 -50 15 -93
18 -95 18 -93 1 -93 -16 0 -22 22 -32 102 -9 77 -14 84 -52 64 -38 -19 -42
-20 -42 -3 0 8 18 22 40 32 31 14 39 22 34 37 -3 10 -13 70 -23 134 -16 99
-22 119 -46 144 -31 32 -26 63 6 34 18 -16 18 -15 9 17 -14 46 -12 59 4 59 10
0 17 -16 21 -47z"/>
<path d="M340 1808 c0 -19 31 -192 35 -196 2 -2 27 9 55 23 l52 27 -34 36
c-19 20 -51 56 -71 80 -20 23 -37 36 -37 30z"/>
<path d="M2620 1990 c-14 -11 -37 -20 -51 -20 -30 0 -59 -28 -59 -56 0 -20
-78 -104 -96 -104 -6 0 -19 9 -29 20 -23 25 -47 26 -68 2 -21 -23 -21 -35 -2
-72 13 -26 13 -30 -1 -44 -8 -9 -23 -16 -33 -16 -25 0 -51 -32 -51 -62 0 -29
35 -78 55 -78 7 0 41 -31 75 -70 34 -38 73 -76 86 -85 29 -19 59 -12 74 16 14
25 2 47 -71 125 -33 35 -59 71 -59 81 0 13 11 7 40 -24 59 -62 73 -67 100 -38
23 24 23 26 7 58 -9 17 -26 46 -37 64 l-21 32 48 45 c26 25 51 46 54 46 4 0
32 -29 63 -64 64 -74 88 -86 117 -60 30 27 23 55 -36 124 -30 35 -55 67 -55
72 0 4 11 24 25 44 22 33 24 40 12 58 -19 28 -56 31 -87 6z m64 -19 c3 -5 -13
-25 -36 -44 l-41 -35 24 -30 c13 -16 48 -57 77 -90 36 -41 49 -63 41 -68 -7
-4 -23 5 -38 22 -14 16 -48 55 -76 86 l-50 57 -80 -73 -80 -74 22 -29 c62 -80
76 -104 66 -114 -8 -8 -25 9 -58 55 -26 36 -50 66 -54 66 -4 0 -23 -17 -44
-38 l-36 -37 91 -93 c73 -73 89 -95 79 -105 -10 -9 -18 -6 -38 18 -79 93 -155
164 -170 158 -12 -5 -14 -1 -9 15 4 11 2 23 -4 27 -15 9 -12 25 5 25 8 0 15
-4 15 -10 0 -17 14 -10 57 29 l42 38 -31 37 c-20 24 -28 42 -23 54 7 19 3 22
54 -47 l19 -25 82 74 c72 66 80 76 64 87 -10 8 -14 18 -10 30 7 16 9 15 26 -7
l19 -25 38 38 c39 39 48 43 57 28z"/>
<path d="M1832 1635 c-12 -15 -24 -35 -27 -46 -8 -23 -18 -24 -49 -4 -21 14
-24 13 -45 -9 l-23 -25 41 -138 c39 -132 40 -141 32 -213 -6 -41 -21 -108 -34
-149 -28 -83 -26 -103 12 -132 114 -88 181 -96 252 -31 17 15 29 20 33 13 11
-18 44 -12 59 10 17 24 15 36 -33 154 l-33 80 9 165 c14 271 9 305 -44 315
-15 3 -40 10 -57 16 -62 22 -71 22 -93 -6z m50 -78 l1 -72 6 63 c8 79 27 77
24 -3 l-2 -60 18 54 c15 46 22 54 46 57 26 3 27 1 22 -31 -3 -19 -2 -37 3 -40
5 -3 5 -19 0 -36 -5 -17 -12 -104 -15 -192 l-7 -162 46 -104 c29 -64 43 -108
37 -114 -9 -9 -28 26 -67 128 l-19 50 -3 -102 c-3 -120 -22 -141 -22 -25 -1
50 -6 83 -15 96 -13 17 -14 15 -17 -20 -2 -22 2 -56 9 -78 17 -51 16 -61 -3
-45 -15 12 -16 10 -10 -19 6 -26 5 -32 -10 -32 -14 0 -16 7 -12 48 3 26 2 56
-2 67 -7 16 -9 17 -9 3 -2 -42 -24 -118 -32 -112 -6 3 -7 19 -4 35 4 16 3 29
-2 29 -11 0 -10 129 1 182 5 20 4 44 -2 53 -13 25 -30 -47 -38 -168 -5 -64
-11 -96 -18 -94 -6 2 -10 24 -9 53 3 47 0 47 -19 -5 -5 -15 -12 -21 -18 -15
-5 5 3 43 21 94 17 47 35 121 40 165 10 80 9 81 -36 215 -50 149 -50 150 -32
150 7 0 24 -43 41 -103 37 -129 49 -151 41 -72 -9 94 -11 111 -19 123 -4 7 -1
12 8 12 8 0 16 -8 18 -17 2 -10 8 3 12 30 4 26 12 47 18 47 5 0 7 7 4 16 -7
19 2 37 15 29 5 -4 10 -39 11 -78z"/>
<path d="M1849 1508 c-2 -27 1 -63 8 -80 11 -33 11 -33 11 17 0 28 -4 64 -7
80 -7 28 -8 26 -12 -17z"/>
<path d="M1830 1303 c0 -35 3 -44 10 -33 13 20 13 80 0 80 -5 0 -10 -21 -10
-47z"/>
<path d="M1931 1155 c0 -22 4 -49 9 -60 7 -15 9 -9 9 25 0 25 -4 52 -9 60 -7
11 -10 4 -9 -25z"/>
<path d="M1860 1043 c0 -21 -2 -49 -5 -63 -3 -14 2 -7 9 15 17 48 20 85 6 85
-5 0 -10 -17 -10 -37z"/>
<path d="M1058 653 c-10 -11 -18 -29 -18 -41 0 -16 -6 -22 -23 -22 -35 0 -59
-31 -51 -66 4 -16 12 -38 18 -49 6 -11 11 -29 12 -40 1 -11 5 -28 9 -37 5 -14
2 -18 -11 -18 -34 0 -84 -38 -84 -64 0 -31 21 -47 62 -47 18 0 251 3 518 6
394 6 489 10 508 21 36 24 28 51 -28 85 -28 17 -48 34 -45 39 2 4 23 7 45 7
53 0 73 18 66 58 -5 22 -2 36 9 45 37 31 -8 89 -60 76 -15 -4 -37 0 -55 9 -21
11 -62 15 -157 15 -70 0 -200 7 -288 14 -88 8 -216 18 -285 21 -116 7 -126 6
-142 -12z m366 -43 c142 -11 310 -20 372 -20 63 0 114 -4 114 -9 0 -16 29 -21
75 -12 27 5 48 5 51 -1 3 -5 4 -11 2 -13 -2 -3 -69 -12 -149 -20 -189 -21
-212 -27 -134 -36 33 -4 96 -7 140 -8 44 -1 90 -4 103 -7 50 -14 15 -22 -95
-23 -65 0 -174 -4 -243 -9 l-125 -9 133 -1 c80 -1 132 -6 132 -12 0 -5 -15
-11 -32 -12 -18 -1 -6 -4 26 -7 36 -4 61 -11 64 -19 3 -11 -12 -12 -74 -8 -97
7 -465 25 -634 30 -69 2 -126 8 -128 14 -4 14 54 32 106 32 67 0 46 9 -42 19
-43 5 -80 12 -83 15 -17 17 17 17 124 1 81 -12 143 -15 199 -10 106 9 132 25
39 25 -38 0 -139 5 -222 12 -119 9 -153 14 -153 25 0 9 7 12 18 9 9 -2 58 -8
107 -11 50 -3 104 -8 120 -11 24 -3 26 -2 10 5 -11 5 -41 10 -67 10 -27 1 -48
6 -48 11 0 6 -11 10 -24 10 -14 0 -28 5 -31 10 -4 6 41 11 127 11 110 2 123 3
73 9 -33 4 -93 8 -132 9 -59 1 -73 4 -73 16 0 13 9 15 48 10 26 -3 163 -14
306 -25z m506 -245 c0 -11 -21 -15 -107 -18 -101 -3 -99 -3 35 -5 95 -1 142
-6 140 -12 -2 -8 -119 -11 -358 -11 -195 0 -434 -3 -530 -8 -96 -5 -177 -7
-179 -5 -3 2 1 10 8 17 8 8 52 13 129 14 173 4 826 34 831 39 10 10 31 3 31
-11z"/>
<path d="M1187 570 c2 -3 98 -15 211 -27 196 -21 214 -21 337 -7 71 8 131 17
133 18 5 6 -250 16 -475 19 -116 1 -209 0 -206 -3z"/>
<path d="M1416 479 c-134 -20 -57 -24 205 -12 116 5 143 9 109 14 -60 10 -241
9 -314 -2z"/>
<path d="M1180 450 l-35 -7 35 -1 c19 0 55 3 80 7 l45 8 -45 0 c-25 0 -61 -3
-80 -7z"/>
</g>
</svg>
